# xmcd CD database file
#
# Track frame offsets:
#	150
#	15575
#	29062
#	42620
#	62390
#	78042
#	87757
#	109452
#	123437
#	135290
#	151182
#	166262
#
# Disc length: 2398 seconds
#
# Revision: 2
# Processed by: cddbd v1.5.2PL0 Copyright (c) Steve Scherf et al.
# Submitted via: CDex 1.51
#
DISCID=8c095c0c
DTITLE=Redneck Greece Delux - Good Eatin'
DYEAR=1992
DGENRE=Country
TTITLE0=Puddin' Tane
TTITLE1=Jesus was a Rebel
TTITLE2=Dyin' Quivers
TTITLE3=18 Wheels Has Got the Best of Me
TTITLE4=Wino Rich
TTITLE5=There Stands the Glass
TTITLE6=(We Where) Snotty Nose Kids in a Trailer Park
TTITLE7=I Wish I Didn't Like Girls So Much
TTITLE8=Redneck T.V.
TTITLE9=Tell Me Boy
TTITLE10=Who'll Watch the Children?
TTITLE11=Rednecks, White Socks and Blue Ribbon Beer
EXTD=YEAR: 1992
EXTT0=
EXTT1=
EXTT2=
EXTT3=
EXTT4=
EXTT5=
EXTT6=
EXTT7=
EXTT8=
EXTT9=
EXTT10=
EXTT11=
PLAYORDER=
